<?xml version="1.0" encoding="utf-8"?>
<svg width="76px" height="46px" viewBox="0 0 76 46" xmlns="http://www.w3.org/2000/svg">
  <g id="surface1" transform="matrix(1, 0, 0, 1, 4.629714, -15.557461)">
    <path style=" stroke:none;fillRule:nonzero;fill:rgb(53.72549%,53.72549%,59.607843%);fill-opacity:1;" d="M 7.746 57.206 C 6.129 57.206 4.82 55.897 4.82 54.28 L 4.82 51.354 L 10.672 51.354 L 10.672 54.28 C 10.672 55.897 9.359 57.206 7.746 57.206 Z M 7.746 57.206"/>
    <path style=" stroke:none;fillRule:nonzero;fill:rgb(53.72549%,53.72549%,59.607843%);fill-opacity:1;" d="M 49.183 57.206 C 47.57 57.206 46.258 55.897 46.258 54.28 L 46.258 51.354 L 52.109 51.354 L 52.109 54.28 C 52.109 55.897 50.8 57.206 49.183 57.206 Z M 49.183 57.206"/>
    <path style=" stroke:none;fillRule:nonzero;fill:rgb(44.705882%,84.705882%,100%);fill-opacity:1;" d="M 61.043 51.108 C 61.043 48.983 60.199 46.944 58.695 45.44 L 45.386 32.131 C 40.941 27.686 34.91 25.186 28.625 25.186 L -3.157 25.186 L -3.157 51.354 L 60.797 51.354 C 60.879 51.354 60.957 51.35 61.035 51.346 C 61.039 51.268 61.043 51.19 61.043 51.108 Z M 61.043 51.108"/>
    <path style=" stroke:none;fillRule:nonzero;fill:rgb(100%,100%,100%);fill-opacity:1;" d="M 57.332 28.534 L 36.941 28.534 C 34.679 28.534 32.847 30.37 32.847 32.631 C 32.847 34.893 34.679 36.725 36.941 36.725 L 65.523 36.725 Z M 57.332 28.534"/>
    <path style=" stroke:none;fillRule:nonzero;fill:rgb(100%,100%,100%);fill-opacity:1;" d="M -3.157 28.534 L 19.664 28.534 C 21.925 28.534 23.758 30.37 23.758 32.631 C 23.758 34.893 21.925 36.725 19.664 36.725 L -3.157 36.725"/>
    <path style=" stroke:none;fillRule:nonzero;fill:rgb(0%,0%,0%);fill-opacity:1;" d="M 68.89 55.741 L 53.32 55.741 C 53.484 55.284 53.574 54.792 53.574 54.28 L 53.574 52.819 L 60.797 52.819 C 66.023 52.819 70.277 48.565 70.277 43.339 C 70.277 40.807 69.289 38.424 67.5 36.635 L 66.554 35.694 L 58.363 27.503 L 54.191 23.327 C 49.437 18.573 43.117 15.956 36.394 15.956 L -3.157 15.956 C -3.965 15.956 -4.617 16.612 -4.617 17.417 C -4.617 18.225 -3.965 18.881 -3.157 18.881 L 36.394 18.881 C 42.336 18.881 47.922 21.194 52.121 25.397 L 53.8 27.073 L 36.941 27.073 C 33.879 27.073 31.386 29.565 31.386 32.631 C 31.386 35.698 33.879 38.19 36.941 38.19 L 64.918 38.19 L 65.429 38.706 C 66.668 39.944 67.351 41.589 67.351 43.339 C 67.351 46.952 64.41 49.893 60.797 49.893 L -3.157 49.893 C -3.965 49.893 -4.617 50.546 -4.617 51.354 C -4.617 52.163 -3.965 52.819 -3.157 52.819 L 3.355 52.819 L 3.355 54.28 C 3.355 54.792 3.445 55.284 3.609 55.745 L -3.082 55.745 C -3.887 55.745 -4.543 56.397 -4.543 57.206 C -4.543 58.014 -3.887 58.667 -3.082 58.667 L 21.496 58.667 C 22.3 58.667 22.957 58.014 22.957 57.206 C 22.957 56.397 22.3 55.745 21.496 55.745 L 11.879 55.745 C 12.043 55.284 12.133 54.792 12.133 54.28 L 12.133 52.819 L 44.797 52.819 L 44.797 54.28 C 44.797 54.792 44.886 55.284 45.047 55.745 L 32.91 55.745 C 32.101 55.745 31.449 56.397 31.449 57.206 C 31.449 58.014 32.101 58.667 32.91 58.667 L 68.89 58.667 C 69.695 58.667 70.351 58.014 70.351 57.206 C 70.351 56.397 69.695 55.741 68.89 55.741 Z M 36.941 35.264 C 35.492 35.264 34.308 34.085 34.308 32.631 C 34.308 31.178 35.492 29.999 36.941 29.999 L 56.726 29.999 L 61.992 35.264 Z M 9.207 54.28 C 9.207 55.089 8.55 55.741 7.746 55.741 C 6.937 55.741 6.281 55.089 6.281 54.28 L 6.281 52.819 L 9.207 52.819 Z M 47.722 54.28 L 47.722 52.819 L 50.648 52.819 L 50.648 54.28 C 50.648 55.089 49.992 55.741 49.183 55.741 C 48.379 55.741 47.722 55.089 47.722 54.28 Z M 47.722 54.28"/>
    <path style=" stroke:none;fillRule:nonzero;fill:rgb(0%,0%,0%);fill-opacity:1;" d="M 27.199 55.741 C 26.816 55.741 26.437 55.901 26.164 56.171 C 25.894 56.444 25.738 56.823 25.738 57.206 C 25.738 57.589 25.894 57.967 26.164 58.241 C 26.437 58.51 26.816 58.667 27.199 58.667 C 27.586 58.667 27.961 58.51 28.234 58.241 C 28.504 57.967 28.664 57.589 28.664 57.206 C 28.664 56.823 28.504 56.444 28.234 56.171 C 27.961 55.901 27.586 55.741 27.199 55.741 Z M 27.199 55.741"/>
    <path style=" stroke:none;fillRule:nonzero;fill:rgb(0%,0%,0%);fill-opacity:1;" d="M 19.664 35.264 L -3.157 35.264 C -3.965 35.264 -4.617 35.921 -4.617 36.725 C -4.617 37.534 -3.965 38.19 -3.157 38.19 L 19.664 38.19 C 22.726 38.19 25.222 35.698 25.222 32.631 C 25.222 29.565 22.726 27.073 19.664 27.073 L 2.429 27.073 C 1.621 27.073 0.968 27.725 0.968 28.534 C 0.968 29.342 1.621 29.999 2.429 29.999 L 19.664 29.999 C 21.117 29.999 22.297 31.178 22.297 32.631 C 22.297 34.085 21.117 35.264 19.664 35.264 Z M 19.664 35.264"/>
    <path style=" stroke:none;fillRule:nonzero;fill:rgb(0%,0%,0%);fill-opacity:1;" d="M -3.157 27.073 C -3.539 27.073 -3.918 27.229 -4.192 27.503 C -4.461 27.772 -4.617 28.151 -4.617 28.534 C -4.617 28.921 -4.461 29.296 -4.192 29.569 C -3.918 29.842 -3.539 29.999 -3.157 29.999 C -2.77 29.999 -2.395 29.842 -2.121 29.569 C -1.848 29.296 -1.696 28.921 -1.696 28.534 C -1.696 28.151 -1.848 27.772 -2.121 27.503 C -2.395 27.229 -2.77 27.073 -3.157 27.073 Z M -3.157 27.073"/>
  </g>
</svg>