<?xml version="1.0" encoding="UTF-8"?>
<svg xmlns="http://www.w3.org/2000/svg" xmlns:xlink="http://www.w3.org/1999/xlink" width="75pt" height="75pt" viewBox="0 0 75 75" version="1.1">
<g id="surface1">
<path style=" stroke:none;fillRule:nonzero;fill:rgb(53.72549%,53.72549%,59.607843%);fill-opacity:1;" d="M 12.21875 57.503906 C 10.601562 57.503906 9.292969 56.195312 9.292969 54.578125 L 9.292969 51.652344 L 15.144531 51.652344 L 15.144531 54.578125 C 15.144531 56.195312 13.832031 57.503906 12.21875 57.503906 Z M 12.21875 57.503906 "/>
<path style=" stroke:none;fillRule:nonzero;fill:rgb(53.72549%,53.72549%,59.607843%);fill-opacity:1;" d="M 53.65625 57.503906 C 52.042969 57.503906 50.730469 56.195312 50.730469 54.578125 L 50.730469 51.652344 L 56.582031 51.652344 L 56.582031 54.578125 C 56.582031 56.195312 55.273438 57.503906 53.65625 57.503906 Z M 53.65625 57.503906 "/>
<path style=" stroke:none;fillRule:nonzero;fill:rgb(44.705882%,84.705882%,100%);fill-opacity:1;" d="M 65.515625 51.40625 C 65.515625 49.28125 64.671875 47.242188 63.167969 45.738281 L 49.859375 32.429688 C 45.414062 27.984375 39.382812 25.484375 33.097656 25.484375 L 1.316406 25.484375 L 1.316406 51.652344 L 65.269531 51.652344 C 65.351562 51.652344 65.429688 51.648438 65.507812 51.644531 C 65.511719 51.566406 65.515625 51.488281 65.515625 51.40625 Z M 65.515625 51.40625 "/>
<path style=" stroke:none;fillRule:nonzero;fill:rgb(100%,100%,100%);fill-opacity:1;" d="M 61.804688 28.832031 L 41.414062 28.832031 C 39.152344 28.832031 37.320312 30.667969 37.320312 32.929688 C 37.320312 35.191406 39.152344 37.023438 41.414062 37.023438 L 69.996094 37.023438 Z M 61.804688 28.832031 "/>
<path style=" stroke:none;fillRule:nonzero;fill:rgb(100%,100%,100%);fill-opacity:1;" d="M 1.316406 28.832031 L 24.136719 28.832031 C 26.398438 28.832031 28.230469 30.667969 28.230469 32.929688 C 28.230469 35.191406 26.398438 37.023438 24.136719 37.023438 L 1.316406 37.023438 "/>
<path style=" stroke:none;fillRule:nonzero;fill:rgb(0%,0%,0%);fill-opacity:1;" d="M 73.363281 56.039062 L 57.792969 56.039062 C 57.957031 55.582031 58.046875 55.089844 58.046875 54.578125 L 58.046875 53.117188 L 65.269531 53.117188 C 70.496094 53.117188 74.75 48.863281 74.75 43.636719 C 74.75 41.105469 73.761719 38.722656 71.972656 36.933594 L 71.027344 35.992188 L 62.835938 27.800781 L 58.664062 23.625 C 53.910156 18.871094 47.589844 16.253906 40.867188 16.253906 L 1.316406 16.253906 C 0.507812 16.253906 -0.144531 16.910156 -0.144531 17.714844 C -0.144531 18.523438 0.507812 19.179688 1.316406 19.179688 L 40.867188 19.179688 C 46.808594 19.179688 52.394531 21.492188 56.59375 25.695312 L 58.273438 27.371094 L 41.414062 27.371094 C 38.351562 27.371094 35.859375 29.863281 35.859375 32.929688 C 35.859375 35.996094 38.351562 38.488281 41.414062 38.488281 L 69.390625 38.488281 L 69.902344 39.003906 C 71.140625 40.242188 71.824219 41.886719 71.824219 43.636719 C 71.824219 47.25 68.882812 50.191406 65.269531 50.191406 L 1.316406 50.191406 C 0.507812 50.191406 -0.144531 50.84375 -0.144531 51.652344 C -0.144531 52.460938 0.507812 53.117188 1.316406 53.117188 L 7.828125 53.117188 L 7.828125 54.578125 C 7.828125 55.089844 7.917969 55.582031 8.082031 56.042969 L 1.390625 56.042969 C 0.585938 56.042969 -0.0703125 56.695312 -0.0703125 57.503906 C -0.0703125 58.3125 0.585938 58.964844 1.390625 58.964844 L 25.96875 58.964844 C 26.773438 58.964844 27.429688 58.3125 27.429688 57.503906 C 27.429688 56.695312 26.773438 56.042969 25.96875 56.042969 L 16.351562 56.042969 C 16.515625 55.582031 16.605469 55.089844 16.605469 54.578125 L 16.605469 53.117188 L 49.269531 53.117188 L 49.269531 54.578125 C 49.269531 55.089844 49.359375 55.582031 49.519531 56.042969 L 37.382812 56.042969 C 36.574219 56.042969 35.921875 56.695312 35.921875 57.503906 C 35.921875 58.3125 36.574219 58.964844 37.382812 58.964844 L 73.363281 58.964844 C 74.167969 58.964844 74.824219 58.3125 74.824219 57.503906 C 74.824219 56.695312 74.167969 56.039062 73.363281 56.039062 Z M 41.414062 35.5625 C 39.964844 35.5625 38.78125 34.382812 38.78125 32.929688 C 38.78125 31.476562 39.964844 30.296875 41.414062 30.296875 L 61.199219 30.296875 L 66.464844 35.5625 Z M 13.679688 54.578125 C 13.679688 55.386719 13.023438 56.039062 12.21875 56.039062 C 11.410156 56.039062 10.753906 55.386719 10.753906 54.578125 L 10.753906 53.117188 L 13.679688 53.117188 Z M 52.195312 54.578125 L 52.195312 53.117188 L 55.121094 53.117188 L 55.121094 54.578125 C 55.121094 55.386719 54.464844 56.039062 53.65625 56.039062 C 52.851562 56.039062 52.195312 55.386719 52.195312 54.578125 Z M 52.195312 54.578125 "/>
<path style=" stroke:none;fillRule:nonzero;fill:rgb(0%,0%,0%);fill-opacity:1;" d="M 31.671875 56.039062 C 31.289062 56.039062 30.910156 56.199219 30.636719 56.46875 C 30.367188 56.742188 30.210938 57.121094 30.210938 57.503906 C 30.210938 57.886719 30.367188 58.265625 30.636719 58.539062 C 30.910156 58.808594 31.289062 58.964844 31.671875 58.964844 C 32.058594 58.964844 32.433594 58.808594 32.707031 58.539062 C 32.976562 58.265625 33.136719 57.886719 33.136719 57.503906 C 33.136719 57.121094 32.976562 56.742188 32.707031 56.46875 C 32.433594 56.199219 32.058594 56.039062 31.671875 56.039062 Z M 31.671875 56.039062 "/>
<path style=" stroke:none;fillRule:nonzero;fill:rgb(0%,0%,0%);fill-opacity:1;" d="M 24.136719 35.5625 L 1.316406 35.5625 C 0.507812 35.5625 -0.144531 36.21875 -0.144531 37.023438 C -0.144531 37.832031 0.507812 38.488281 1.316406 38.488281 L 24.136719 38.488281 C 27.199219 38.488281 29.695312 35.996094 29.695312 32.929688 C 29.695312 29.863281 27.199219 27.371094 24.136719 27.371094 L 6.902344 27.371094 C 6.09375 27.371094 5.441406 28.023438 5.441406 28.832031 C 5.441406 29.640625 6.09375 30.296875 6.902344 30.296875 L 24.136719 30.296875 C 25.589844 30.296875 26.769531 31.476562 26.769531 32.929688 C 26.769531 34.382812 25.589844 35.5625 24.136719 35.5625 Z M 24.136719 35.5625 "/>
<path style=" stroke:none;fillRule:nonzero;fill:rgb(0%,0%,0%);fill-opacity:1;" d="M 1.316406 27.371094 C 0.933594 27.371094 0.554688 27.527344 0.28125 27.800781 C 0.0117188 28.070312 -0.144531 28.449219 -0.144531 28.832031 C -0.144531 29.21875 0.0117188 29.59375 0.28125 29.867188 C 0.554688 30.140625 0.933594 30.296875 1.316406 30.296875 C 1.703125 30.296875 2.078125 30.140625 2.351562 29.867188 C 2.625 29.59375 2.777344 29.21875 2.777344 28.832031 C 2.777344 28.449219 2.625 28.070312 2.351562 27.800781 C 2.078125 27.527344 1.703125 27.371094 1.316406 27.371094 Z M 1.316406 27.371094 "/>
</g>
</svg>
