<svg height="50" viewBox="0 0 60 43" width="100" xmlns="http://www.w3.org/2000/svg"><g id="Page-1" fill="none" fill-rule="evenodd"><g id="013---Train-Carriage" fill-rule="nonzero"><g fill="#3f5c6c"><circle id="Oval" cx="9" cy="36" r="4"/><path id="Shape" d="m25 36c.0030533.3377372-.0406959.6742693-.13 1-.5317644 2.0270031-2.5467947 3.2921797-4.6035139 2.8904071-2.0567192-.4017725-3.4474883-2.3322596-3.1773343-4.4103674.270154-2.0781077 2.1082814-3.5888383 4.1993636-3.4513966 2.0910822.1374416 3.7156573 1.8757669 3.7114846 3.9713569z"/><path id="Shape" d="m43 36c-.0057389 2.0098387-1.5019627 3.7033294-3.4957785 3.9566732s-3.8660208-1.0121382-4.3742215-2.9566732c-.0893041-.3257307-.1330533-.6622628-.13-1 0-2.209139 1.790861-4 4-4s4 1.790861 4 4z"/><circle id="Oval" cx="51" cy="36" r="4"/></g><path id="Shape" d="m57 26v5c-.0032948 1.1032019-.8967981 1.9967052-2 2h-50c-1.10320187-.0032948-1.9967052-.8967981-2-2v-5z" fill="#7f8c8d"/><path id="Shape" d="m58 6v21c0 .5522847-.4477153 1-1 1h-54c-.55228475 0-1-.4477153-1-1v-21z" fill="#e64c3c"/><path id="Shape" d="m35 36c-.0030533.3377372.0406959.6742693.13 1h-10.26c.0893041-.3257307.1330533-.6622628.13-1 .0006309-1.1493597-.4951491-2.2429921-1.36-3h12.72c-.8648509.7570079-1.3606309 1.8506403-1.36 3z" fill="#56595e"/><circle id="Oval" cx="9" cy="36" fill="#95a5a5" r="1"/><circle id="Oval" cx="21" cy="36" fill="#95a5a5" r="1"/><circle id="Oval" cx="39" cy="36" fill="#95a5a5" r="1"/><circle id="Oval" cx="51" cy="36" fill="#95a5a5" r="1"/><rect id="Rectangle-path" fill="#67b9cc" height="8" rx="1" width="8" x="7" y="13"/><rect id="Rectangle-path" fill="#67b9cc" height="8" rx="1" width="8" x="19" y="13"/><rect id="Rectangle-path" fill="#67b9cc" height="8" rx="1" width="8" x="31" y="13"/><path id="Rectangle-path" d="m45 19h8v9h-8z" fill="#e64c3c"/><path id="Shape" d="m53 13v6h-8v-6c0-.5522847.4477153-1 1-1h6c.5522847 0 1 .4477153 1 1z" fill="#67b9cc"/><path id="Shape" d="m53 22v2h-2c-.5522847 0-1-.4477153-1-1s.4477153-1 1-1z" fill="#f3d55b"/><path id="Shape" d="m59 43h-58c-.55228475 0-1-.4477153-1-1s.44771525-1 1-1h58c.5522847 0 1 .4477153 1 1s-.4477153 1-1 1z" fill="#7f8c8d"/><path id="Shape" d="m14 22h-6c-1.1045695 0-2-.8954305-2-2v-6c0-1.1045695.8954305-2 2-2h6c1.1045695 0 2 .8954305 2 2v6c0 1.1045695-.8954305 2-2 2zm-6-8v6h6v-6z" fill="#bdc3c7"/><path id="Shape" d="m26 22h-6c-1.1045695 0-2-.8954305-2-2v-6c0-1.1045695.8954305-2 2-2h6c1.1045695 0 2 .8954305 2 2v6c0 1.1045695-.8954305 2-2 2zm-6-8v6h6v-6z" fill="#bdc3c7"/><path id="Shape" d="m38 22h-6c-1.1045695 0-2-.8954305-2-2v-6c0-1.1045695.8954305-2 2-2h6c1.1045695 0 2 .8954305 2 2v6c0 1.1045695-.8954305 2-2 2zm-6-8v6h6v-6z" fill="#bdc3c7"/><path id="Shape" d="m9 41c-2.76142375 0-5-2.2385763-5-5s2.23857625-5 5-5c2.7614237 0 5 2.2385763 5 5-.0033061 2.7600532-2.2399468 4.9966939-5 5zm0-8c-1.65685425 0-3 1.3431458-3 3s1.34314575 3 3 3c1.6568542 0 3-1.3431458 3-3s-1.3431458-3-3-3z" fill="#95a5a5"/><path id="Shape" d="m21 41c-2.0786429-.0025155-3.9389176-1.2908203-4.6723576-3.2357697-.7334399-1.9449494-.1870429-4.1408095 1.3723576-5.5152303 1.9052822-1.6104399 4.6947178-1.6104399 6.6 0 1.0791829.9480796 1.6984686 2.3145153 1.7 3.751.0031637.4293377-.0530349.8570521-.167 1.271-.5704299 2.2008123-2.5594735 3.7354996-4.833 3.729zm0-8c-1.6568542 0-3 1.3431458-3 3s1.3431458 3 3 3c1.3669393.0027978 2.5613563-.9226695 2.9-2.247.068651-.2450335.1023175-.4985417.1-.753-.0054879-1.6545758-1.3454242-2.9945121-3-3z" fill="#95a5a5"/><path id="Shape" d="m39 41c-2.2819688.0043095-4.2753787-1.5417263-4.839-3.753-.1105771-.4063209-.1647512-.8259182-.161-1.247.0015314-1.4364847.6208171-2.8029204 1.7-3.751 1.9052822-1.6104399 4.6947178-1.6104399 6.6 0 1.5594005 1.3744208 2.1057975 3.5702809 1.3723576 5.5152303-.73344 1.9449494-2.5937147 3.2332542-4.6723576 3.2357697zm0-8c-1.6548028.0049422-2.9950578 1.3451972-3 3-.0032184.246152.0280862.4915398.093.729.3822532 1.5094399 1.857687 2.4739184 3.3936698 2.218413 1.5359829-.2555053 2.6197261-1.645694 2.4927357-3.1975959-.1269903-1.551902-1.4223183-2.747414-2.9794055-2.7498171z" fill="#95a5a5"/><path id="Shape" d="m51 41c-2.7614237 0-5-2.2385763-5-5s2.2385763-5 5-5 5 2.2385763 5 5c-.0033061 2.7600532-2.2399468 4.9966939-5 5zm0-8c-1.6568542 0-3 1.3431458-3 3s1.3431458 3 3 3 3-1.3431458 3-3-1.3431458-3-3-3z" fill="#95a5a5"/><path id="Shape" d="m52 28v-15h-6v15h-2v-15c0-1.1045695.8954305-2 2-2h6c1.1045695 0 2 .8954305 2 2v15z" fill="#c03a2b"/><path id="Shape" d="m59 6v1c0 .55228475-.4477153 1-1 1h-56c-.55228475 0-1-.44771525-1-1v-1c0-3.3137085 2.6862915-6 6-6h46c3.3137085 0 6 2.6862915 6 6z" fill="#f9eab0"/><path id="Shape" d="m12 0v2c0 .55228475-.4477153 1-1 1s-1-.44771525-1-1v-2z" fill="#a59078"/><path id="Shape" d="m50 0v2c0 .55228475-.4477153 1-1 1s-1-.44771525-1-1v-2z" fill="#a59078"/></g></g></svg>