<?xml version="1.0" encoding="utf-8"?>
<svg width="75px" height="36px" viewBox="0 0 75 36" version="1.1" xmlns="http://www.w3.org/2000/svg">
  <g id="surface1" transform="matrix(1, 0, 0, 1, -0.089928, -19.514389)">
    <path style=" stroke:none;fill-rule:nonzero;fill:rgb(83.921569%,87.843137%,95.686275%);fill-opacity:1;" d="M 1.636719 20.679688 L 46.34375 20.679688 C 51.761719 20.679688 56.882812 23.125 60.289062 27.335938 L 73.992188 44.296875 C 74.644531 45.105469 75 46.113281 75 47.152344 C 75 49.660156 72.964844 51.695312 70.457031 51.695312 L 1.636719 51.695312 C 0.734375 51.695312 0 50.960938 0 50.054688 L 0 22.316406 C 0 21.410156 0.734375 20.675781 1.636719 20.675781 Z M 1.636719 20.679688 "/>
    <path style=" stroke:none;fill-rule:nonzero;fill:rgb(72.156863%,78.823529%,91.764706%);fill-opacity:1;" d="M 73.992188 44.296875 L 60.289062 27.335938 C 56.882812 23.125 51.761719 20.679688 46.34375 20.679688 L 41.132812 20.679688 C 46.546875 20.679688 51.671875 23.125 55.074219 27.335938 L 68.78125 44.296875 C 69.433594 45.105469 69.789062 46.113281 69.789062 47.152344 C 69.789062 49.660156 67.753906 51.695312 65.246094 51.695312 L 70.457031 51.695312 C 72.96875 51.695312 75 49.660156 75 47.152344 C 75 46.113281 74.644531 45.105469 73.992188 44.296875 Z M 73.992188 44.296875 "/>
    <path style=" stroke:none;fill-rule:nonzero;fill:rgb(88.627451%,49.803922%,52.54902%);fill-opacity:1;" d="M 60.289062 27.335938 C 56.882812 23.125 51.761719 20.679688 46.34375 20.679688 L 1.636719 20.679688 C 0.734375 20.679688 0 21.410156 0 22.316406 L 0 25.066406 L 42.8125 25.066406 C 44.628906 25.066406 46.351562 25.890625 47.488281 27.3125 L 56.515625 38.488281 C 57.507812 39.714844 59 40.425781 60.578125 40.425781 L 70.863281 40.425781 Z M 60.289062 27.335938 "/>
    <path style=" stroke:none;fill-rule:nonzero;fill:rgb(41.568627%,38.039216%,69.803922%);fill-opacity:1;" d="M 15.132812 26.195312 L 15.132812 35.921875 L 29.554688 35.921875 L 29.554688 26.195312 Z M 15.132812 26.195312 "/>
    <path style=" stroke:none;fill-rule:nonzero;fill:rgb(41.568627%,38.039216%,69.803922%);fill-opacity:1;" d="M 12.871094 35.921875 L 12.871094 26.195312 L 0 26.195312 L 0 35.921875 Z M 12.871094 35.921875 "/>
    <path style=" stroke:none;fill-rule:nonzero;fill:rgb(72.156863%,78.823529%,91.764706%);fill-opacity:1;" d="M 28.003906 27.074219 L 28.003906 44.933594 L 41.726562 44.933594 L 41.726562 27.074219 C 41.726562 26.589844 41.335938 26.195312 40.851562 26.195312 L 28.878906 26.195312 C 28.394531 26.195312 28.003906 26.589844 28.003906 27.074219 Z M 28.003906 27.074219 "/>
    <path style=" stroke:none;fill-rule:nonzero;fill:rgb(87.45098%,39.215686%,43.137255%);fill-opacity:1;" d="M 55.074219 27.335938 L 65.652344 40.429688 L 70.863281 40.429688 L 60.289062 27.335938 C 56.882812 23.125 51.761719 20.675781 46.34375 20.675781 L 41.132812 20.675781 C 46.546875 20.675781 51.671875 23.125 55.074219 27.335938 Z M 55.074219 27.335938 "/>
    <path style=" stroke:none;fill-rule:nonzero;fill:rgb(31.764706%,28.235294%,59.607843%);fill-opacity:1;" d="M 18.144531 45.765625 L 15.273438 51.695312 L 53.53125 51.695312 L 50.65625 45.765625 C 50.410156 45.257812 49.894531 44.933594 49.328125 44.933594 L 19.472656 44.933594 C 18.90625 44.933594 18.390625 45.257812 18.144531 45.765625 Z M 18.144531 45.765625 "/>
    <path style=" stroke:none;fill-rule:nonzero;fill:rgb(41.568627%,38.039216%,69.803922%);fill-opacity:1;" d="M 32.289062 30.613281 L 32.289062 34.191406 C 32.289062 35.148438 33.0625 35.921875 34.019531 35.921875 L 35.710938 35.921875 C 36.667969 35.921875 37.441406 35.148438 37.441406 34.191406 L 37.441406 30.613281 C 37.441406 29.660156 36.667969 28.882812 35.710938 28.882812 L 34.019531 28.882812 C 33.0625 28.882812 32.289062 29.660156 32.289062 30.613281 Z M 32.289062 30.613281 "/>
    <path style=" stroke:none;fill-rule:nonzero;fill:rgb(41.568627%,38.039216%,69.803922%);fill-opacity:1;" d="M 60.289062 27.335938 C 59.617188 26.511719 58.882812 25.75 58.09375 25.066406 L 53.058594 25.066406 C 52.488281 25.066406 52.175781 25.722656 52.53125 26.164062 L 59.058594 34.242188 C 59.917969 35.304688 61.207031 35.921875 62.574219 35.921875 L 67.222656 35.921875 Z M 60.289062 27.335938 "/>
    <path style=" stroke:none;fill-rule:nonzero;fill:rgb(31.764706%,28.235294%,59.607843%);fill-opacity:1;" d="M 60.289062 27.335938 C 59.839844 26.78125 59.285156 26.175781 58.6875 25.605469 C 58.679688 25.597656 58.675781 25.59375 58.667969 25.585938 C 58.480469 25.410156 58.289062 25.234375 58.09375 25.066406 L 53.058594 25.066406 C 53.003906 25.066406 52.953125 25.074219 52.902344 25.085938 C 53.683594 25.765625 54.414062 26.515625 55.074219 27.335938 L 61.976562 35.882812 C 62.175781 35.90625 62.375 35.921875 62.574219 35.921875 L 67.222656 35.921875 Z M 60.289062 27.335938 "/>
    <path style=" stroke:none;fill-rule:nonzero;fill:rgb(54.117647%,58.039216%,85.882353%);fill-opacity:1;" d="M 42.199219 44.984375 C 39.621094 44.707031 37.308594 46.574219 37.035156 49.152344 C 36.761719 51.730469 38.625 54.042969 41.203125 54.316406 C 43.78125 54.589844 46.09375 52.726562 46.367188 50.148438 C 46.644531 47.570312 44.777344 45.257812 42.199219 44.984375 Z M 42.199219 44.984375 "/>
    <path style=" stroke:none;fill-rule:nonzero;fill:rgb(44.313725%,49.411765%,83.137255%);fill-opacity:1;" d="M 45.390625 46.707031 C 45.375 49.289062 43.28125 51.375 40.695312 51.375 C 39.207031 51.375 37.878906 50.683594 37.019531 49.601562 C 37.019531 49.609375 37.019531 49.617188 37.019531 49.628906 C 37.019531 52.21875 39.121094 54.320312 41.714844 54.320312 C 44.308594 54.320312 46.410156 52.21875 46.410156 49.628906 C 46.410156 48.523438 46.027344 47.507812 45.390625 46.707031 Z M 45.390625 46.707031 "/>
    <path style=" stroke:none;fill-rule:nonzero;fill:rgb(54.117647%,58.039216%,85.882353%);fill-opacity:1;" d="M 31.796875 49.554688 C 31.757812 46.964844 29.625 44.894531 27.03125 44.929688 C 24.4375 44.96875 22.367188 47.105469 22.40625 49.695312 C 22.445312 52.289062 24.578125 54.359375 27.171875 54.320312 C 29.765625 54.28125 31.835938 52.148438 31.796875 49.554688 Z M 31.796875 49.554688 "/>
    <path style=" stroke:none;fill-rule:nonzero;fill:rgb(44.313725%,49.411765%,83.137255%);fill-opacity:1;" d="M 30.761719 46.707031 C 30.746094 49.289062 28.652344 51.375 26.066406 51.375 C 24.578125 51.375 23.253906 50.683594 22.394531 49.601562 C 22.394531 49.609375 22.390625 49.617188 22.390625 49.628906 C 22.390625 52.21875 24.492188 54.320312 27.085938 54.320312 C 29.679688 54.320312 31.78125 52.21875 31.78125 49.628906 C 31.78125 48.523438 31.398438 47.507812 30.761719 46.707031 Z M 30.761719 46.707031 "/>
  </g>
</svg>